<?xml version="1.0" encoding="utf-8"?>
<!-- Generator: Adobe Illustrator 22.0.1, SVG Export Plug-In . SVG Version: 6.00 Build 0)  -->
<svg version="1.1" id="Layer_1" xmlns="http://www.w3.org/2000/svg" xmlns:xlink="http://www.w3.org/1999/xlink" x="0px" y="0px"
	 viewBox="0 0 100 100" style="enable-background:new 0 0 100 100;" xml:space="preserve">
<g>
	<path d="M76.9,73.5c5.9-6.9,9.5-15.9,9.5-25.7c0-21.8-17.7-39.5-39.5-39.5S7.4,26.1,7.4,47.9s17.7,39.5,39.5,39.5
		c10.6,0,20.1-4.2,27.2-10.9l15.4,15.4c0.4,0.4,0.9,0.6,1.4,0.6s1-0.2,1.4-0.6c0.8-0.8,0.8-2,0-2.8L76.9,73.5z M46.9,83.4
		c-19.6,0-35.5-15.9-35.5-35.5s15.9-35.5,35.5-35.5s35.5,15.9,35.5,35.5S66.4,83.4,46.9,83.4z"/>
</g>
</svg>
